<?xml version="1.0" encoding="UTF-8"?>
<!DOCTYPE svg PUBLIC "-//W3C//DTD SVG 1.1//EN" "http://www.w3.org/Graphics/SVG/1.1/DTD/svg11.dtd">
<!-- Creator: CorelDRAW -->
<svg xmlns="http://www.w3.org/2000/svg" xml:space="preserve" width="28.3869mm" height="28.3869mm" version="1.1" style="shape-rendering:geometricPrecision; text-rendering:geometricPrecision; image-rendering:optimizeQuality; fill-rule:evenodd; clip-rule:evenodd"
viewBox="0 0 444.02 444.02"
 xmlns:xlink="http://www.w3.org/1999/xlink"
 xmlns:xodm="http://www.corel.com/coreldraw/odm/2003">
 <defs>
  <style type="text/css">
   <![CDATA[
    .fil0 {fill:white}
   ]]>
  </style>
 </defs>
 <g id="Camada_x0020_1">
  <metadata id="CorelCorpID_0Corel-Layer"/>
  <path class="fil0" d="M-0 210.31l0 21.74c0.71,2.3 0.79,9.04 1.07,12.08 1.06,11.48 3.17,22.39 5.9,33.45 6.31,25.53 18.62,51.09 33.02,71.62 6.09,8.68 9.47,11.96 14.51,18.57 2.7,3.54 6.09,6.64 9.23,9.8l13.49 12.8c4.58,4.22 9.54,7.61 14.68,11.59 24.73,19.16 59.75,34 91.82,39.19 4.09,0.66 21.18,2.01 23.08,2.87l25.27 0c2.17,-0.68 9.43,-0.81 12.42,-1.09 10.64,-1.01 23.37,-3.28 33.54,-5.87 65.58,-16.71 115.44,-60.88 144.81,-120.28 8.88,-17.96 15.48,-40.57 18.62,-61.06 0.65,-4.25 1.91,-21.99 2.58,-23.78l0 -21.5c-0.67,-1.55 -2.23,-20.04 -2.9,-24.06 -1.25,-7.55 -2.72,-14.65 -4.73,-22.01 -7.08,-25.97 -19.04,-51.58 -34.28,-72.15 -6.97,-9.4 -16.28,-20.75 -24.45,-28.58 -33.76,-32.4 -76.23,-54.97 -125.2,-61.53l-23.91 -2.11 -18.13 0c-1.86,0.81 -19.46,2.13 -23.65,2.81 -7.33,1.2 -14.85,2.67 -21.69,4.56 -35.77,9.89 -58.8,22.89 -86.38,45.05 -1.37,1.1 -2.37,2.08 -3.68,3.12 -4.15,3.31 -12.85,12.05 -16.41,16.21 -2.03,2.39 -4.19,4.37 -6.2,6.94 -13.67,17.51 -19.25,23.78 -30.96,47.89 -9.07,18.67 -15.13,39.07 -18.69,60.09 -0.69,4.08 -2.12,21.99 -2.78,23.62zm64.81 142.56c3.71,-5.78 5.73,-10.85 11.27,-18.98 6.01,-8.84 7.4,-10.07 13.26,-17.55l11.01 -11.63c3.66,-4.31 17.32,-14.26 21.33,-17.21 16.58,-12.21 42.7,-22.63 64.15,-27.37 8.81,-1.95 17.91,-2.53 26.69,-4.16 -3.67,-1.52 -16.06,-1.45 -32.2,-10.37 -11.13,-6.15 -21.9,-15.03 -28.6,-24.42 -1.71,-2.4 -2.89,-4.1 -4.43,-6.46 -35.37,-54.27 1.74,-134.04 73.82,-134.79 48.07,-0.5 86.08,36.87 88.68,82.76 2.75,48.61 -31.61,86.46 -77.79,93.51 2.54,1.1 21.18,2.92 26.19,3.98 23.18,4.91 45.9,14.21 64,27.51 7.6,5.58 14.34,10.8 21.11,16.96 4.91,4.47 13.55,14.34 18.04,20.01 7.67,9.69 17.35,27.44 17.91,28.13 2.42,-1.52 13.45,-17.57 15.54,-20.97 15.18,-24.69 25.41,-49.79 29.78,-80.24 6.29,-43.83 -2.41,-88.92 -20.36,-122.93 -4.62,-8.75 -8.84,-15.4 -13.76,-22.94 -4.01,-6.14 -7.62,-10.08 -11.82,-15.36 -7.21,-9.07 -14.7,-15.53 -22.94,-23.29 -1.43,-1.35 -3.28,-2.81 -4.92,-4.12 -34.38,-27.53 -78.67,-45.88 -129.19,-45.58 -51.43,0.31 -93.49,17.81 -128.32,45.56 -1.84,1.47 -3.32,2.99 -5.1,4.4l-4.8 4.26c-1.79,1.52 -3.1,2.64 -4.77,4.29 -4.36,4.29 -13.14,14.01 -17.3,19.4 -2.79,3.62 -5.11,6.82 -7.89,10.69 -15.34,21.39 -27.31,50.95 -32.46,77.59 -8.32,43 -2.31,85.23 15.14,124.32 3.86,8.63 8.39,16.26 12.95,23.75 2.29,3.75 12.36,18.37 15.8,21.27z"/>
 </g>
</svg>
